<?xml version="1.0" encoding="UTF-8"?>
<!-- Creator: CorelDRAW 2020 (64-Bit) -->
<svg xmlns="http://www.w3.org/2000/svg" xmlns:xlink="http://www.w3.org/1999/xlink" xmlns:xodm="http://www.corel.com/coreldraw/odm/2003" xml:space="preserve" width="125.709mm" height="125.709mm" version="1.1" style="shape-rendering:geometricPrecision; text-rendering:geometricPrecision; image-rendering:optimizeQuality; fill-rule:evenodd; clip-rule:evenodd" viewBox="0 0 5528.22 5528.22">
 <defs>
  <style type="text/css">
   <![CDATA[
    .fil3 {fill:#FEFEFE}
    .fil0 {fill:#2F4193}
    .fil4 {fill:#FF0009}
    .fil2 {fill:#FEFEFE;fill-rule:nonzero}
    .fil1 {fill:#FF0009;fill-rule:nonzero}
   ]]>
  </style>
 </defs>
 <g id="Слой_x0020_1">
  <metadata id="CorelCorpID_0Corel-Layer"></metadata>
  <g id="_3015193942928">
   <path class="fil0" d="M2764.11 0c1526.57,0 2764.11,1237.54 2764.11,2764.11 0,1526.57 -1237.54,2764.11 -2764.11,2764.11 -1526.57,0 -2764.11,-1237.54 -2764.11,-2764.11 0,-1526.57 1237.54,-2764.11 2764.11,-2764.11z"></path>
   <path class="fil1" d="M2764.11 425.78c645.69,0 1230.29,261.73 1653.44,684.89 423.14,423.16 684.89,1007.75 684.89,1653.44 0,645.7 -261.74,1230.29 -684.89,1653.44 -423.16,423.14 -1007.75,684.89 -1653.44,684.89 -645.7,0 -1230.29,-261.74 -1653.44,-684.89 -423.15,-423.15 -684.89,-1007.74 -684.89,-1653.44 0,-645.69 261.73,-1230.29 684.89,-1653.44 423.15,-423.15 1007.74,-684.89 1653.44,-684.89zm1600.96 737.36c-409.71,-409.71 -975.76,-663.13 -1600.96,-663.13 -625.21,0 -1191.26,253.42 -1600.96,663.13 -409.71,409.71 -663.13,975.76 -663.13,1600.96 0,625.21 253.42,1191.26 663.13,1600.96 409.71,409.7 975.75,663.13 1600.96,663.13 625.21,0 1191.26,-253.43 1600.96,-663.13 409.69,-409.71 663.13,-975.75 663.13,-1600.96 0,-625.21 -253.43,-1191.26 -663.13,-1600.96z"></path>
   <path class="fil2" d="M2764.11 629.91c589.32,0 1122.89,238.89 1509.11,625.1 386.21,386.21 625.1,919.77 625.1,1509.11 0,589.33 -238.89,1122.9 -625.1,1509.11 -386.21,386.21 -919.78,625.1 -1509.11,625.1 -589.34,0 -1122.9,-238.89 -1509.11,-625.1 -386.2,-386.21 -625.1,-919.78 -625.1,-1509.11 0,-589.34 238.89,-1122.89 625.1,-1509.11 386.21,-386.21 919.77,-625.1 1509.11,-625.1zm1456.63 677.57c-372.77,-372.76 -887.79,-603.34 -1456.63,-603.34 -568.85,0 -1083.86,230.58 -1456.63,603.34 -372.76,372.77 -603.34,887.78 -603.34,1456.63 0,568.84 230.58,1083.86 603.34,1456.63 372.77,372.76 887.78,603.34 1456.63,603.34 568.84,0 1083.86,-230.58 1456.63,-603.34 372.76,-372.77 603.34,-887.78 603.34,-1456.63 0,-568.85 -230.58,-1083.86 -603.34,-1456.63z"></path>
   <path class="fil3" d="M2340.64 1815.52l48.91 0 185.14 0 18.44 0 0 1537.95 -252.5 0 0 -677.16 -340.55 0 -306.38 677.16 -296.18 0 695.84 -1537.95 100.97 0 146.3 0zm-40.83 198.34l40.83 0 0 464.11 -250.82 0 209.98 -464.11zm1041.64 -198.34l-296.18 0 198.73 580 -308.49 526.78 0 -1106.77 -252.5 0 0 1537.95 252.5 0 401.69 -685.94 235.04 685.94 296.18 0 -526.98 -1537.95z"></path>
   <path class="fil4" d="M2393.25 1783.96l48.91 0 185.15 0 18.44 0 0 1537.95 -252.5 0 0 -677.16 -340.55 0 -306.38 677.16 -296.18 0 695.85 -1537.95 100.97 0 146.3 0zm-40.83 198.34l40.83 0 0 464.11 -250.81 0 209.98 -464.11zm1041.64 -198.34l-296.18 0 198.73 579.99 -308.49 526.78 0 -1106.77 -252.5 0 0 1537.95 252.5 0 401.69 -685.94 235.04 685.94 296.18 0 -526.98 -1537.95z"></path>
   <path class="fil2" d="M1326.41 1787.42c-40.31,-34.91 -62.01,-73.32 -64.95,-115.23 -3.01,-41.96 12.88,-82.96 47.64,-123.09 35.61,-41.11 74.08,-63.24 115.39,-66.41 41.36,-3.13 81.91,12.56 121.64,46.97 28.87,25.01 48.32,50.31 58.36,76.01 10.05,25.71 12.23,52.24 6.63,79.51 -5.65,27.31 -20.34,54.64 -44.1,82.06 -24.1,27.84 -48.5,47.06 -73.2,57.67 -24.7,10.5 -51.58,13.19 -80.6,7.88 -28.96,-5.25 -57.94,-20.38 -86.8,-45.37zm1554.21 -582.42l18.65 -87.5 34.38 7.33 35.68 -167.39c8.96,-42.04 57.68,-69.85 115.4,-57.55l195.53 41.67 -52.42 245.97 34.38 7.33 -17.3 81.14 -364.3 -71zm248.56 -38.49l35.67 -167.4 -79.46 -16.94 -17.3 -4.17 -35.78 167.87 96.88 20.64zm-1736.55 544.81c24.89,21.57 46.87,32.45 65.76,32.6 18.94,0.09 35.35,-7.82 49.2,-23.81 14.2,-16.39 19.9,-33.79 17.03,-51.97 -2.88,-18.29 -18.08,-39.31 -45.74,-63.26 -23.23,-20.13 -44.27,-30.11 -63.09,-30.01 -18.91,0.12 -35.27,8.19 -49.23,24.3 -13.35,15.41 -18.64,32.56 -15.83,51.29 2.74,18.8 16.77,39.08 41.91,60.85zm301.29 -86.85l-51.85 -72.91 28.65 -20.37 -99.19 -139.48c-24.9,-35.03 -12.45,-89.72 35.65,-123.93l162.92 -115.86 145.75 204.97 28.65 -20.37 48.08 67.61 -298.66 220.35zm139.72 -209.14l-99.19 -139.48 -66.22 47.09 -14.78 9.92 99.47 139.88 80.71 -57.41zm360.31 -458.24l119.88 304.04 -88.34 34.82 -65.82 -166.95 -47.2 211.52 -89.1 35.13 -119.88 -304.04 88.74 -34.98 66.33 168.23 47.54 -213.13 87.83 -34.64zm144.24 -43.98l100.06 -12.72 14.38 113.2 109.59 -13.93 -14.39 -113.19 100.53 -12.78 41.19 324.21 -100.53 12.77 -16.68 -131.31 -109.57 13.92 16.68 131.32 -100.07 12.71 -41.19 -324.2zm1080.43 72.54l246.22 111.32 -28.77 63.64 -153.88 -69.58 -21.44 47.42 142.65 64.5 -27.45 60.71 -142.66 -64.49 -26.51 58.63 158.46 71.65 -30.47 67.39 -250.79 -113.39 134.64 -297.79zm368.79 179.02l79.32 62.34 -70.51 89.71 86.84 68.26 70.51 -89.72 79.67 62.62 -201.94 256.96 -79.67 -62.62 81.8 -104.08 -86.84 -68.25 -81.8 104.08 -79.3 -62.33 201.93 -256.96zm316.78 450.01l33.33 42.41c30.55,38.88 46.37,73.18 47.44,102.72 1.05,29.66 -12.92,55.82 -41.87,78.58 -23.74,18.66 -48.64,24.29 -74.74,16.93 -26.14,-7.41 -51.84,-27.17 -77.22,-59.47l-107.18 -136.37 256.96 -201.94 62.34 79.32 -99.05 77.83zm-102.64 80.67l31.91 40.61c19.52,24.83 38.26,30.22 56.28,16.06 15.73,-12.36 13.84,-31 -5.66,-55.83l-31.92 -40.61 -50.6 39.77z"></path>
   <path class="fil2" d="M1465.43 3658.54l122.85 143.88c20.45,23.96 30.2,47.43 29.31,70.41 -0.88,22.96 -10.11,41.94 -27.64,56.91 -14.68,12.54 -31.2,18.75 -49.53,18.48 -12.24,-0.04 -25.4,-4.31 -39.53,-12.56 10.99,21.54 14.8,40.89 11.55,58.27 -3.32,17.33 -12.85,32.77 -28.64,46.26 -12.9,11.02 -27.04,17.89 -42.43,20.72 -15.43,2.77 -30.54,1.47 -45.41,-3.74 -9.24,-3.32 -20.25,-10.72 -33.04,-22.3 -17.02,-15.37 -27.96,-25.84 -32.81,-31.51l-113.22 -132.59 248.54 -212.22zm-31.45 160.69l28.59 33.49c10.24,11.98 19.48,18.6 27.59,19.77 8.17,1.14 16.16,-1.58 23.97,-8.25 7.23,-6.18 10.88,-13.4 10.92,-21.54 0.11,-8.18 -4.88,-18.14 -14.82,-29.76l-29.04 -34.02 -47.2 40.3zm-97.55 83.29l33.44 39.17c11.31,13.25 21.65,20.52 30.98,21.97 9.33,1.44 17.89,-1.18 25.83,-7.95 7.34,-6.27 10.97,-13.96 10.84,-23.16 -0.15,-9.17 -5.95,-20.54 -17.45,-34.01l-33.29 -38.99 -50.34 42.97zm221.56 121.74c32.06,-42.61 68.9,-66.89 110.52,-72.7 41.64,-5.89 83.64,7.14 126.06,39.07 43.46,32.7 68.17,69.58 74.18,110.56 5.95,41.04 -6.91,82.58 -38.52,124.58 -22.96,30.52 -46.88,51.65 -71.84,63.44 -24.95,11.78 -51.28,15.77 -78.86,12.07 -27.63,-3.76 -55.91,-16.55 -84.9,-38.37 -29.42,-22.14 -50.27,-45.16 -62.56,-69.08 -12.17,-23.91 -16.71,-50.55 -13.39,-79.86 3.25,-29.26 16.35,-59.2 39.31,-89.71zm80.48 60.84c-19.81,26.32 -29.17,48.99 -28.02,67.85 1.2,18.9 10.22,34.74 27.12,47.45 17.33,13.04 35.08,17.54 53.02,13.42 18.05,-4.12 37.97,-20.73 59.98,-49.97 18.47,-24.57 26.99,-46.24 25.59,-65.01 -1.42,-18.86 -10.59,-34.63 -27.62,-47.44 -16.29,-12.27 -33.77,-16.37 -52.27,-12.29 -18.56,4.04 -37.83,19.42 -57.82,45.99zm422.45 86.31l175.39 70.93c29.2,11.82 48.69,28.13 58.49,48.93 9.82,20.79 10.4,41.87 1.76,63.24 -7.25,17.91 -19.03,31.04 -35.41,39.26 -10.88,5.61 -24.52,7.89 -40.86,7.1 19.68,14.04 31.99,29.45 37.14,46.36 5.06,16.9 3.73,35.01 -4.05,54.26 -6.36,15.72 -15.73,28.34 -28.08,37.96 -12.41,9.6 -26.42,15.41 -42.01,17.64 -9.72,1.31 -22.91,-0.16 -39.61,-4.53 -22.2,-5.77 -36.72,-10 -43.64,-12.81l-161.64 -65.36 122.52 -302.98zm46.28 157.06l40.82 16.52c14.6,5.9 25.86,7.5 33.59,4.8 7.77,-2.76 13.6,-8.86 17.45,-18.38 3.57,-8.82 3.46,-16.9 -0.26,-24.15 -3.68,-7.31 -12.7,-13.82 -26.89,-19.57l-41.45 -16.76 -23.27 57.54zm-48.09 118.92l47.74 19.31c16.15,6.53 28.68,8.22 37.62,5.19 8.93,-3.03 15.32,-9.3 19.23,-18.97 3.62,-8.95 3.29,-17.46 -1.07,-25.55 -4.37,-8.07 -14.75,-15.47 -31.18,-22.12l-47.53 -19.22 -24.81 61.36zm301.31 -163.6l165.08 31.03c35.96,6.76 61.27,20.33 76,40.83 14.65,20.48 19.03,46.54 13.09,78.17 -6.1,32.45 -20.66,56.03 -43.61,70.6 -22.96,14.65 -54.51,18.16 -94.57,10.63l-54.45 -10.24 -22.34 118.88 -99.58 -18.72 60.38 -321.19zm73.77 155.98l24.46 4.6c19.29,3.63 33.44,2.8 42.47,-2.39 9.03,-5.2 14.52,-12.98 16.48,-23.38 1.89,-10.09 0.14,-19.25 -5.35,-27.55 -5.42,-8.29 -17.46,-14.2 -36.15,-17.72l-28.41 -5.33 -13.5 71.77zm211.03 -102.8l270.06 -9.38 2.43 69.8 -168.8 5.86 1.81 52.01 156.46 -5.43 2.32 66.6 -156.46 5.44 2.23 64.31 173.8 -6.04 2.57 73.91 -275.07 9.55 -11.34 -326.61zm297.69 -5.36l129.8 -29.96 94.16 182.34 4.87 -205.21 129.19 -29.81 73.51 318.44 -80.51 18.58 -56.03 -242.76 -6.07 257.1 -72.95 16.83 -118.01 -228.45 56.04 242.76 -80.5 18.58 -73.51 -318.44zm384.03 -101.77l246.19 -111.38 28.79 63.63 -153.87 69.61 21.45 47.41 142.64 -64.52 27.47 60.71 -142.64 64.52 26.52 58.63 158.45 -71.68 30.48 67.37 -250.78 113.45 -134.7 -297.76zm256.58 -113.34l78.65 -63.15 71.44 88.97 86.13 -69.14 -71.44 -88.99 79.02 -63.44 204.61 254.85 -79.02 63.44 -82.87 -103.23 -86.13 69.15 82.87 103.22 -78.66 63.15 -204.6 -254.85zm483.9 -458.11l244.26 217.14 -63.08 70.96 -134.13 -119.23 53.41 210.03 -63.63 71.57 -244.25 -217.13 63.38 -71.29 135.15 120.15 -53.83 -211.64 62.72 -70.56z"></path>
  </g>
 </g>
</svg>
